<svg width="400" height="400" viewBox="0 0 400 400" fill="none" xmlns="http://www.w3.org/2000/svg">
<path d="M25 116.3C25 102.861 35.8614 92 49.3 92C62.7386 92 73.6 102.861 73.6 116.3C73.6 129.739 62.7386 140.6 49.3 140.6C35.8614 140.6 25 129.739 25 116.3Z" stroke="#DC670B" stroke-width="10"/>
<path d="M331.858 150.6H375V308H334.8V214.6V202.631L326.286 211.043L259.7 276.831V276.686L251.176 285.153C236.972 299.263 217.423 308 195.8 308C158.096 308 126.595 281.582 118.886 246.137L116.946 237.22L110.474 243.655L75.0745 278.855L73.6 280.321V282.4V308H25V156.098C32.082 160.407 40.4214 162.9 49.3 162.9C58.1786 162.9 66.518 160.407 73.6 156.098V227.8V239.812L82.1232 231.348L139.723 174.148L139.741 174.13L139.759 174.112C154.063 159.619 173.899 150.6 195.9 150.6C229.836 150.6 258.709 172.029 269.809 202.13L272.498 209.423L278.019 203.952L331.858 150.6Z" stroke="#163361" stroke-width="10"/>
<path d="M195.9 266C188.262 266 181.345 263.244 176.279 257.485C171.171 251.679 167.5 242.303 167.5 228.3C167.5 214.404 171.434 205.546 176.61 200.185C181.802 194.807 188.769 192.4 195.9 192.4C203.065 192.4 210.025 194.754 215.2 200.083C220.359 205.395 224.3 214.241 224.3 228.3C224.3 242.512 220.6 251.872 215.499 257.618C210.438 263.317 203.527 266 195.9 266Z" stroke="#163361" stroke-width="10"/>
</svg>
